<svg xmlns="http://www.w3.org/2000/svg" xmlns:xlink="http://www.w3.org/1999/xlink" width="500" zoomAndPan="magnify" viewBox="0 0 375 374.999991" height="500" preserveAspectRatio="xMidYMid meet" version="1.0"><defs><g/><clipPath id="1391582dbd"><path d="M 326.429688 106.523438 L 362.476562 106.523438 L 362.476562 142.570312 L 326.429688 142.570312 Z M 326.429688 106.523438 " clip-rule="nonzero"/></clipPath><clipPath id="a6fdec7c9d"><path d="M 344.453125 106.523438 C 334.496094 106.523438 326.429688 114.59375 326.429688 124.546875 C 326.429688 134.5 334.496094 142.570312 344.453125 142.570312 C 354.40625 142.570312 362.476562 134.5 362.476562 124.546875 C 362.476562 114.59375 354.40625 106.523438 344.453125 106.523438 Z M 344.453125 106.523438 " clip-rule="nonzero"/></clipPath></defs><g fill="#FFFFFF" fill-opacity="1"><g transform="translate(31.423615, 235.557933)"><g><path d="M 112.476562 0 L 70.460938 -109.042969 L 41.359375 -109.042969 L -0.816406 0 L 24.6875 0 L 31.550781 -18.800781 L 80.269531 -18.800781 L 87.136719 0 Z M 73.894531 -38.910156 L 37.765625 -38.910156 L 55.910156 -88.933594 Z M 73.894531 -38.910156 "/></g></g></g><g fill="#FFFFFF" fill-opacity="1"><g transform="translate(143.235651, 235.557933)"><g><path d="M 34.003906 0 L 34.003906 -109.042969 L 10.789062 -109.042969 L 10.789062 0 Z M 34.003906 0 "/></g></g></g><g fill="#FFFFFF" fill-opacity="1"><g transform="translate(188.025864, 235.557933)"><g><path d="M 128.988281 0 L 128.988281 -109.042969 L 96.289062 -109.042969 L 69.804688 -41.035156 L 43.324219 -109.042969 L 10.789062 -109.042969 L 10.789062 0 L 34.003906 0 L 34.003906 -78.472656 L 64.738281 0 L 74.875 0 L 105.609375 -78.472656 L 105.609375 0 Z M 128.988281 0 "/></g></g></g><g clip-path="url(#1391582dbd)"><g clip-path="url(#a6fdec7c9d)"><path fill="#ff3131" d="M 326.429688 106.523438 L 362.476562 106.523438 L 362.476562 142.570312 L 326.429688 142.570312 Z M 326.429688 106.523438 " fill-opacity="1" fill-rule="nonzero"/></g></g></svg>