<svg xmlns="http://www.w3.org/2000/svg" xmlns:xlink="http://www.w3.org/1999/xlink" width="500" zoomAndPan="magnify" viewBox="0 0 375 374.999991" height="500" preserveAspectRatio="xMidYMid meet" version="1.0"><defs><g/><clipPath id="3e5051f79f"><path d="M 135.433594 123.527344 L 149.210938 123.527344 L 149.210938 137.308594 L 135.433594 137.308594 Z M 135.433594 123.527344 " clip-rule="nonzero"/></clipPath><clipPath id="9b7844dedf"><path d="M 142.324219 123.527344 C 138.519531 123.527344 135.433594 126.613281 135.433594 130.417969 C 135.433594 134.222656 138.519531 137.308594 142.324219 137.308594 C 146.128906 137.308594 149.210938 134.222656 149.210938 130.417969 C 149.210938 126.613281 146.128906 123.527344 142.324219 123.527344 Z M 142.324219 123.527344 " clip-rule="nonzero"/></clipPath></defs><g fill="#000000" fill-opacity="1"><g transform="translate(22.668687, 172.851474)"><g><path d="M 42.992188 0 L 26.933594 -41.679688 L 15.808594 -41.679688 L -0.3125 0 L 9.4375 0 L 12.0625 -7.1875 L 30.683594 -7.1875 L 33.308594 0 Z M 28.246094 -14.871094 L 14.433594 -14.871094 L 21.371094 -33.996094 Z M 28.246094 -14.871094 "/></g></g></g><g fill="#000000" fill-opacity="1"><g transform="translate(65.40867, 172.851474)"><g><path d="M 12.996094 0 L 12.996094 -41.679688 L 4.125 -41.679688 L 4.125 0 Z M 12.996094 0 "/></g></g></g><g fill="#000000" fill-opacity="1"><g transform="translate(82.529662, 172.851474)"><g><path d="M 49.304688 0 L 49.304688 -41.679688 L 36.808594 -41.679688 L 26.683594 -15.683594 L 16.558594 -41.679688 L 4.125 -41.679688 L 4.125 0 L 12.996094 0 L 12.996094 -29.996094 L 24.746094 0 L 28.621094 0 L 40.367188 -29.996094 L 40.367188 0 Z M 49.304688 0 "/></g></g></g><g fill="#000000" fill-opacity="1"><g transform="translate(22.668687, 234.375249)"><g><path d="M 12.996094 0 L 12.996094 -41.679688 L 4.125 -41.679688 L 4.125 0 Z M 12.996094 0 "/></g></g></g><g fill="#000000" fill-opacity="1"><g transform="translate(39.789679, 234.375249)"><g><path d="M 32.246094 0 L 32.246094 -21.308594 C 32.246094 -27.183594 29.058594 -30.933594 22.433594 -30.933594 C 17.496094 -30.933594 13.808594 -28.558594 11.875 -26.246094 L 11.875 -30.183594 L 3.9375 -30.183594 L 3.9375 0 L 11.875 0 L 11.875 -20.308594 C 13.183594 -22.121094 15.621094 -23.871094 18.746094 -23.871094 C 22.121094 -23.871094 24.308594 -22.433594 24.308594 -18.246094 L 24.308594 0 Z M 32.246094 0 "/></g></g></g><g fill="#000000" fill-opacity="1"><g transform="translate(75.968674, 234.375249)"><g><path d="M 14.058594 0.75 C 17.371094 0.75 19.496094 -0.125 20.683594 -1.1875 L 18.996094 -7.1875 C 18.558594 -6.75 17.433594 -6.3125 16.246094 -6.3125 C 14.496094 -6.3125 13.496094 -7.75 13.496094 -9.625 L 13.496094 -23.246094 L 19.621094 -23.246094 L 19.621094 -30.183594 L 13.496094 -30.183594 L 13.496094 -38.433594 L 5.5 -38.433594 L 5.5 -30.183594 L 0.5 -30.183594 L 0.5 -23.246094 L 5.5 -23.246094 L 5.5 -7.5 C 5.5 -2.125 8.5 0.75 14.058594 0.75 Z M 14.058594 0.75 "/></g></g></g><g fill="#000000" fill-opacity="1"><g transform="translate(97.088728, 234.375249)"><g><path d="M 2 -15.121094 C 2 -5.4375 8.9375 0.75 18.121094 0.75 C 22.808594 0.75 27.496094 -0.625 30.558594 -3.4375 L 27.058594 -8.5625 C 25.121094 -6.6875 21.808594 -5.5625 18.996094 -5.5625 C 13.871094 -5.5625 10.8125 -8.75 10.3125 -12.5625 L 32.746094 -12.5625 L 32.746094 -14.308594 C 32.746094 -24.183594 26.621094 -30.933594 17.621094 -30.933594 C 8.4375 -30.933594 2 -23.871094 2 -15.121094 Z M 17.621094 -24.621094 C 22.871094 -24.621094 24.871094 -20.808594 25.058594 -17.933594 L 10.1875 -17.933594 C 10.5625 -20.933594 12.6875 -24.621094 17.621094 -24.621094 Z M 17.621094 -24.621094 "/></g></g></g><g fill="#000000" fill-opacity="1"><g transform="translate(131.6431, 234.375249)"><g><path d="M 11.875 0 L 11.875 -41.679688 L 3.9375 -41.679688 L 3.9375 0 Z M 11.875 0 "/></g></g></g><g fill="#000000" fill-opacity="1"><g transform="translate(147.451904, 234.375249)"><g><path d="M 11.875 0 L 11.875 -41.679688 L 3.9375 -41.679688 L 3.9375 0 Z M 11.875 0 "/></g></g></g><g fill="#000000" fill-opacity="1"><g transform="translate(163.260707, 234.375249)"><g><path d="M 7.875 -34.621094 C 10.5 -34.621094 12.625 -36.746094 12.625 -39.367188 C 12.625 -41.992188 10.5 -44.117188 7.875 -44.117188 C 5.3125 -44.117188 3.125 -41.992188 3.125 -39.367188 C 3.125 -36.746094 5.3125 -34.621094 7.875 -34.621094 Z M 11.875 0 L 11.875 -30.183594 L 3.9375 -30.183594 L 3.9375 0 Z M 11.875 0 "/></g></g></g><g fill="#000000" fill-opacity="1"><g transform="translate(179.06951, 234.375249)"><g><path d="M 3.3125 7.75 C 7.0625 11.0625 11.125 12.25 16.308594 12.25 C 23.746094 12.25 32.621094 9.4375 32.621094 -2.0625 L 32.621094 -30.183594 L 24.621094 -30.183594 L 24.621094 -26.308594 C 22.183594 -29.371094 18.933594 -30.933594 15.308594 -30.933594 C 7.6875 -30.933594 2 -25.433594 2 -15.558594 C 2 -5.5 7.75 -0.1875 15.308594 -0.1875 C 18.996094 -0.1875 22.246094 -1.9375 24.621094 -4.9375 L 24.621094 -1.875 C 24.621094 4.0625 20.121094 5.75 16.308594 5.75 C 12.5 5.75 9.3125 4.6875 6.875 2 Z M 24.621094 -10.6875 C 23.308594 -8.75 20.433594 -7.25 17.808594 -7.25 C 13.308594 -7.25 10.1875 -10.375 10.1875 -15.558594 C 10.1875 -20.746094 13.308594 -23.871094 17.808594 -23.871094 C 20.433594 -23.871094 23.308594 -22.433594 24.621094 -20.433594 Z M 24.621094 -10.6875 "/></g></g></g><g fill="#000000" fill-opacity="1"><g transform="translate(215.623436, 234.375249)"><g><path d="M 2 -15.121094 C 2 -5.4375 8.9375 0.75 18.121094 0.75 C 22.808594 0.75 27.496094 -0.625 30.558594 -3.4375 L 27.058594 -8.5625 C 25.121094 -6.6875 21.808594 -5.5625 18.996094 -5.5625 C 13.871094 -5.5625 10.8125 -8.75 10.3125 -12.5625 L 32.746094 -12.5625 L 32.746094 -14.308594 C 32.746094 -24.183594 26.621094 -30.933594 17.621094 -30.933594 C 8.4375 -30.933594 2 -23.871094 2 -15.121094 Z M 17.621094 -24.621094 C 22.871094 -24.621094 24.871094 -20.808594 25.058594 -17.933594 L 10.1875 -17.933594 C 10.5625 -20.933594 12.6875 -24.621094 17.621094 -24.621094 Z M 17.621094 -24.621094 "/></g></g></g><g fill="#000000" fill-opacity="1"><g transform="translate(250.177809, 234.375249)"><g><path d="M 32.246094 0 L 32.246094 -21.308594 C 32.246094 -27.183594 29.058594 -30.933594 22.433594 -30.933594 C 17.496094 -30.933594 13.808594 -28.558594 11.875 -26.246094 L 11.875 -30.183594 L 3.9375 -30.183594 L 3.9375 0 L 11.875 0 L 11.875 -20.308594 C 13.183594 -22.121094 15.621094 -23.871094 18.746094 -23.871094 C 22.121094 -23.871094 24.308594 -22.433594 24.308594 -18.246094 L 24.308594 0 Z M 32.246094 0 "/></g></g></g><g fill="#000000" fill-opacity="1"><g transform="translate(286.356805, 234.375249)"><g><path d="M 2 -15.121094 C 2 -5.8125 8.6875 0.75 17.996094 0.75 C 24.183594 0.75 27.933594 -1.9375 29.933594 -4.75 L 24.746094 -9.5625 C 23.308594 -7.5625 21.121094 -6.3125 18.371094 -6.3125 C 13.558594 -6.3125 10.1875 -9.875 10.1875 -15.121094 C 10.1875 -20.371094 13.558594 -23.871094 18.371094 -23.871094 C 21.121094 -23.871094 23.308594 -22.683594 24.746094 -20.621094 L 29.933594 -25.433594 C 27.933594 -28.246094 24.183594 -30.933594 17.996094 -30.933594 C 8.6875 -30.933594 2 -24.371094 2 -15.121094 Z M 2 -15.121094 "/></g></g></g><g fill="#000000" fill-opacity="1"><g transform="translate(317.536985, 234.375249)"><g><path d="M 2 -15.121094 C 2 -5.4375 8.9375 0.75 18.121094 0.75 C 22.808594 0.75 27.496094 -0.625 30.558594 -3.4375 L 27.058594 -8.5625 C 25.121094 -6.6875 21.808594 -5.5625 18.996094 -5.5625 C 13.871094 -5.5625 10.8125 -8.75 10.3125 -12.5625 L 32.746094 -12.5625 L 32.746094 -14.308594 C 32.746094 -24.183594 26.621094 -30.933594 17.621094 -30.933594 C 8.4375 -30.933594 2 -23.871094 2 -15.121094 Z M 17.621094 -24.621094 C 22.871094 -24.621094 24.871094 -20.808594 25.058594 -17.933594 L 10.1875 -17.933594 C 10.5625 -20.933594 12.6875 -24.621094 17.621094 -24.621094 Z M 17.621094 -24.621094 "/></g></g></g><g clip-path="url(#3e5051f79f)"><g clip-path="url(#9b7844dedf)"><path fill="#ff3131" d="M 135.433594 123.527344 L 149.210938 123.527344 L 149.210938 137.308594 L 135.433594 137.308594 Z M 135.433594 123.527344 " fill-opacity="1" fill-rule="nonzero"/></g></g></svg>